<svg xmlns="http://www.w3.org/2000/svg" xmlns:xlink="http://www.w3.org/1999/xlink" viewBox="0 0 236.368 80">
  <defs>
    <style>
      .cls-1 {
        fill: #fff;
      }

      .cls-2 {
        clip-path: url(#clip-path);
      }

      .cls-3 {
        clip-path: url(#clip-path-2);
      }

      .cls-4 {
        clip-path: url(#clip-path-3);
      }

      .cls-5 {
        clip-path: url(#clip-path-5);
      }

      .cls-6 {
        clip-path: url(#clip-path-7);
      }

      .cls-7 {
        clip-path: url(#clip-path-9);
      }

      .cls-8 {
        clip-path: url(#clip-path-10);
      }

      .cls-9 {
        clip-path: url(#clip-path-12);
      }
    </style>
    <clipPath id="clip-path">
      <path id="Path_1" data-name="Path 1" class="cls-1" d="M362,70.6v77.478h38.966v-5.164H367.24V70.592Z" transform="translate(-362 -70.592)"/>
    </clipPath>
    <clipPath id="clip-path-2">
      <rect id="Rectangle_2" data-name="Rectangle 2" class="cls-1" width="1032.814" height="516.407"/>
    </clipPath>
    <clipPath id="clip-path-3">
      <path id="Path_2" data-name="Path 2" class="cls-1" d="M384.27,70.6V75.77h33.964v72.3H423.4V70.6Z" transform="translate(-384.27 -70.604)"/>
    </clipPath>
    <clipPath id="clip-path-5">
      <path id="Path_3" data-name="Path 3" class="cls-1" d="M398.164,125.359a8.428,8.428,0,0,1-8.428-8.412V104.159H394.9v12.788a3.256,3.256,0,0,0,6.512,0V104.159h5.164v12.788a8.421,8.421,0,0,1-8.412,8.412" transform="translate(-389.736 -104.159)"/>
    </clipPath>
    <clipPath id="clip-path-7">
      <path id="Path_4" data-name="Path 4" class="cls-1" d="M378.665,70a8.585,8.585,0,0,0-8.6,8.414v5.765a8.609,8.609,0,0,0,17.214,0V78.414A8.593,8.593,0,0,0,378.665,70Zm3.451,14.179a3.449,3.449,0,0,1-6.885,0V78.414a3.449,3.449,0,0,1,6.885,0Z" transform="translate(-370.067 -70)"/>
    </clipPath>
    <clipPath id="clip-path-9">
      <rect id="Rectangle_13" data-name="Rectangle 13" class="cls-1" width="108.333" height="80"/>
    </clipPath>
    <clipPath id="clip-path-10">
      <rect id="Rectangle_12" data-name="Rectangle 12" class="cls-1" width="1000" height="500"/>
    </clipPath>
    <clipPath id="clip-path-12">
      <path id="Path_5" data-name="Path 5" class="cls-1" d="M490.435,107.233l4.577-13.993H491.7l-2.8,9.315-2.84-9.315H482.62l4.6,13.993h3.217ZM490.4,86.38a6.463,6.463,0,0,0,6.652-4.895l-2.98-.848a3.574,3.574,0,0,1-3.672,2.625,4.22,4.22,0,0,1-.038-8.428,3.381,3.381,0,0,1,3.572,2.605l2.94-.927c-.453-2.013-2.308-4.718-6.512-4.718a7.127,7.127,0,0,0-7.223,7.322A7.039,7.039,0,0,0,490.4,86.38Zm-15.49,26.1H480.9v-2.993h-5.987ZM470.92,120.8a7.039,7.039,0,0,0,7.263,7.262,6.463,6.463,0,0,0,6.652-4.893l-2.982-.85a3.572,3.572,0,0,1-3.67,2.627,4.22,4.22,0,0,1-.04-8.43,3.381,3.381,0,0,1,3.572,2.605l2.942-.927c-.455-2.013-2.31-4.718-6.513-4.718A7.127,7.127,0,0,0,470.92,120.8ZM533.944,96.18V93.24h-8.862v13.993h8.882v-2.96H528.2v-2.685h5.21V98.845H528.2V96.18h5.743Zm-47.188,31.583h3.158v-14h-3.158ZM502.1,82.335l1.578-1.758,3.77,5.507h3.888l-5.468-7.935,5.448-6.058h-4.105L502.1,77.972V72.09h-3.118V86.083H502.1ZM487.2,70.993h5.988V68H487.2Zm28.2,31.03h1.638l2.507,5.21h3.435l-2.843-5.665A4.014,4.014,0,0,0,522.9,97.62a4.272,4.272,0,0,0-4.54-4.382h-6.08v13.993h3.118v-5.208Zm0-6.078h2.368c1.283,0,1.975.652,1.975,1.7,0,.987-.692,1.7-1.975,1.7H515.4Zm-6.333,16.537h5.987v-2.993h-5.987Zm-7.732,15.282h3.158v-14H501.33ZM518.6,86.38a7.293,7.293,0,1,0-7.285-7.282A7.078,7.078,0,0,0,518.6,86.38Zm0-11.547a4.239,4.239,0,1,1-4.047,4.245A3.96,3.96,0,0,1,518.6,74.833Zm-15.705,32.7a7.293,7.293,0,1,0-7.283-7.283A7.079,7.079,0,0,0,502.9,107.532Zm0-11.548a4.238,4.238,0,1,1-4.047,4.243A3.958,3.958,0,0,1,502.9,95.983Zm-34.2,40.608V133.71H457.964v2.98h6.453l-6.748,8.015v3H468.78v-2.982h-6.987Zm55.845-8.828V116.75H527.8v-2.98h-9.61v2.98h3.235v11.013Zm-9.257,14.295h5.21v-2.743h-5.21V136.65h5.743v-2.94H512.17v13.995h8.882v-2.962h-5.763v-2.685Zm2.013-18.42c0-1.993-1.38-3.71-4.047-4.2l-1.873-.357c-.968-.177-1.383-.67-1.383-1.342a1.718,1.718,0,0,1,1.915-1.5,2.118,2.118,0,0,1,2.328,1.755l2.8-.788c-.3-1.638-1.62-3.732-5.113-3.732-2.685,0-5.013,1.855-5.013,4.5,0,2.073,1.442,3.652,3.808,4.1l1.917.357c.927.177,1.5.69,1.5,1.4,0,.868-.75,1.46-1.973,1.46a2.6,2.6,0,0,1-2.9-2.408l-2.862.69c.2,1.973,1.855,4.48,5.723,4.48C515.465,128.058,517.3,125.828,517.3,123.638Zm13.86,16.82a3.132,3.132,0,0,0,2.053-3c0-2.152-1.6-3.75-4.363-3.75h-5.23v14h5.645c2.645,0,4.382-1.678,4.382-3.968A3.277,3.277,0,0,0,531.162,140.458Zm-4.5-4.163h1.658c1.225,0,1.837.593,1.837,1.5,0,.948-.71,1.52-1.795,1.52h-1.7V136.3Zm1.953,8.862h-1.953V141.88h1.953c1.225,0,1.935.672,1.935,1.638C530.55,144.525,529.819,145.157,528.615,145.157Zm16.958-43.408-5.248-8.507h-3.79v13.993h3.1v-9.2l5.763,9.2h3.295V93.242h-3.118v8.507Zm12.5-8.8a7.293,7.293,0,1,0,7.262,7.3A7.087,7.087,0,0,0,558.072,92.945Zm0,11.507a4.239,4.239,0,1,1,4.025-4.223A3.945,3.945,0,0,1,558.072,104.452Zm-48.087,33.64a4.271,4.271,0,0,0-4.54-4.382H499.9v14h3.118v-5.212h1.1l2.507,5.212h3.435l-2.842-5.665A4.018,4.018,0,0,0,509.985,138.092Zm-5.132,1.717h-1.835v-3.393h1.835c1.283,0,1.975.65,1.975,1.7C506.829,139.1,506.137,139.808,504.854,139.808Zm27.558-17.688h5.21v-2.745h-5.21v-2.663h5.743V113.77h-8.862v13.995h8.882V124.8h-5.763V122.12Zm-60.255-25.9h3.235v11.012h3.118V96.222h3.255V93.24h-9.608ZM461.1,81.052h2.685c2.842,0,4.8-1.837,4.8-4.48a4.453,4.453,0,0,0-4.8-4.48h-5.8V86.085H461.1Zm.018-6.257h2.35a1.8,1.8,0,1,1,0,3.573h-2.35ZM495.89,113.77h-3.118v13.995H499.8v-2.98h-3.9V113.77Zm-30.05,8.685a2.43,2.43,0,1,1-4.855,0v-8.687h-3.118v8.942c0,3.512,2.468,5.368,5.547,5.368s5.547-1.855,5.547-5.368v-8.942h-3.118v8.687ZM475.634,86.4c3.077,0,5.545-1.855,5.545-5.368v-8.94h-3.12v8.685a2.43,2.43,0,1,1-4.855,0V72.092h-3.118v8.94C470.085,84.545,472.552,86.4,475.634,86.4Zm16.345,56.718h2.642a3.59,3.59,0,0,1-3.305,1.762,4.22,4.22,0,0,1-.04-8.428,3.384,3.384,0,0,1,3.573,2.605l2.94-.928c-.455-2.013-2.31-4.718-6.513-4.718a7.127,7.127,0,0,0-7.223,7.323A7.041,7.041,0,0,0,491.315,148a6.461,6.461,0,0,0,6.647-4.882h0v-2.995h-5.987v3ZM464.284,92.945a7.293,7.293,0,1,0,7.262,7.3A7.088,7.088,0,0,0,464.284,92.945Zm0,11.507a4.239,4.239,0,1,1,4.025-4.223A3.945,3.945,0,0,1,464.284,104.452Zm10.868,29.258-5.27,14h3.277l1.007-2.843h5.408l1.007,2.843h3.393l-5.21-14Zm.04,8.308,1.717-4.837,1.677,4.837Z" transform="translate(-457 -68)"/>
    </clipPath>
  </defs>
  <g id="Group_39" data-name="Group 39" transform="translate(-82 -50)">
    <g id="Group_13" data-name="Group 13" transform="translate(-280 -20)">
      <g id="Group_3" data-name="Group 3" transform="translate(362 71.019)">
        <g id="Group_2" data-name="Group 2" class="cls-2">
          <g id="Group_1" data-name="Group 1" class="cls-3" transform="translate(-623.131 -121.514)">
            <rect id="Rectangle_1" data-name="Rectangle 1" class="cls-1" width="56.18" height="94.7" transform="translate(614.524 112.907)"/>
          </g>
        </g>
      </g>
      <g id="Group_6" data-name="Group 6" transform="translate(400.335 71.04)">
        <g id="Group_5" data-name="Group 5" class="cls-4">
          <g id="Group_4" data-name="Group 4" class="cls-3" transform="translate(-661.465 -121.535)">
            <rect id="Rectangle_3" data-name="Rectangle 3" class="cls-1" width="56.342" height="94.68" transform="translate(652.859 112.928)"/>
          </g>
        </g>
      </g>
      <g id="Group_9" data-name="Group 9" transform="translate(409.743 128.8)">
        <g id="Group_8" data-name="Group 8" class="cls-5">
          <g id="Group_7" data-name="Group 7" class="cls-3" transform="translate(-670.874 -179.295)">
            <rect id="Rectangle_5" data-name="Rectangle 5" class="cls-1" width="34.054" height="38.414" transform="translate(662.268 170.688)"/>
          </g>
        </g>
      </g>
      <g id="Group_12" data-name="Group 12" transform="translate(375.886 70)">
        <g id="Group_11" data-name="Group 11" class="cls-6">
          <g id="Group_10" data-name="Group 10" class="cls-3" transform="translate(-637.017 -120.495)">
            <rect id="Rectangle_7" data-name="Rectangle 7" class="cls-1" width="34.427" height="39.805" transform="translate(628.41 111.888)"/>
          </g>
        </g>
      </g>
    </g>
    <g id="Group_21" data-name="Group 21" transform="translate(-246.965 -18)">
      <g id="Group_19" data-name="Group 19" class="cls-7" transform="translate(457 68)">
        <g id="Group_18" data-name="Group 18" class="cls-8" transform="translate(-761.667 -113.333)">
          <g id="Group_17" data-name="Group 17" transform="translate(761.667 113.333)">
            <g id="Group_16" data-name="Group 16" class="cls-7">
              <g id="Group_15" data-name="Group 15" class="cls-9">
                <g id="Group_14" data-name="Group 14" class="cls-7" transform="translate(0 0)">
                  <rect id="Rectangle_9" data-name="Rectangle 9" class="cls-1" width="125" height="96.667" transform="translate(-8.333 -8.333)"/>
                </g>
              </g>
            </g>
          </g>
        </g>
      </g>
    </g>
  </g>
</svg>
